{
    "accessors": [
        {
            "bufferView": 1,
            "byteOffset": 0,
            "componentType": 5126,
            "count": 648,
            "max": [
                1.0,
                1.0,
                1.0
            ],
            "min": [
                -1.0,
                -1.0,
                -1.0
            ],
            "name": "accessor_buffer_object_1_NORMAL_0",
            "type": "VEC3"
        },
        {
            "bufferView": 5,
            "byteOffset": 0,
            "componentType": 5123,
            "count": 36,
            "max": [
                589
            ],
            "min": [
                2
            ],
            "name": "accessor_buffer_object_1_2",
            "type": "SCALAR"
        },
        {
            "bufferView": 4,
            "byteOffset": 0,
            "componentType": 5123,
            "count": 1176,
            "max": [
                647
            ],
            "min": [
                0
            ],
            "name": "accessor_buffer_object_1_1",
            "type": "SCALAR"
        },
        {
            "bufferView": 0,
            "byteOffset": 0,
            "componentType": 5126,
            "count": 648,
            "max": [
                10.0,
                10.0,
                0.0
            ],
            "min": [
                -10.0,
                -10.0,
                -20.0
            ],
            "name": "accessor_buffer_object_1_POSITION_0",
            "type": "VEC3"
        },
        {
            "bufferView": 2,
            "byteOffset": 0,
            "componentType": 5126,
            "count": 648,
            "max": [
                1.0,
                0.9896081257611513
            ],
            "min": [
                0.010391874238848686,
                0.050872087478637695
            ],
            "name": "accessor_buffer_object_1_TEXCOORD_0_0",
            "type": "VEC2"
        },
        {
            "bufferView": 3,
            "byteOffset": 0,
            "componentType": 5123,
            "count": 12,
            "max": [
                644
            ],
            "min": [
                73
            ],
            "name": "accessor_buffer_object_1_0",
            "type": "SCALAR"
        }
    ],
    "asset": {
        "copyright": "",
        "generator": "blendergltf v1.2.0",
        "version": "2.0"
    },
    "bufferViews": [
        {
            "buffer": 0,
            "byteLength": 7776,
            "byteOffset": 0,
            "byteStride": 12,
            "name": "bufferView_buffer_object_1_POSITION_0",
            "target": 34962
        },
        {
            "buffer": 0,
            "byteLength": 7776,
            "byteOffset": 7776,
            "byteStride": 12,
            "name": "bufferView_buffer_object_1_NORMAL_0",
            "target": 34962
        },
        {
            "buffer": 0,
            "byteLength": 5184,
            "byteOffset": 15552,
            "byteStride": 8,
            "name": "bufferView_buffer_object_1_TEXCOORD_0_0",
            "target": 34962
        },
        {
            "buffer": 0,
            "byteLength": 28,
            "byteOffset": 20736,
            "name": "bufferView_buffer_object_1_0",
            "target": 34963
        },
        {
            "buffer": 0,
            "byteLength": 2356,
            "byteOffset": 20764,
            "name": "bufferView_buffer_object_1_1",
            "target": 34963
        },
        {
            "buffer": 0,
            "byteLength": 76,
            "byteOffset": 23120,
            "name": "bufferView_buffer_object_1_2",
            "target": 34963
        }
    ],
    "buffers": [
        {
            "byteLength": 23196,
            "name": "buffer_cube_covered_side",
            "uri": "buffer_cube_covered_side.bin"
        }
    ],
    "materials": [
        {
            "alphaMode": "OPAQUE",
            "doubleSided": false,
            "emissiveFactor": [
                10.0,
                10.0,
                10.0
            ],
            "name": "Light",
            "pbrMetallicRoughness": {
                "baseColorFactor": [
                    0.64000004529953,
                    0.0,
                    0.0,
                    1.0
                ],
                "metallicFactor": 0.0,
                "roughnessFactor": 1.0
            }
        },
        {
            "alphaMode": "OPAQUE",
            "doubleSided": false,
            "emissiveFactor": [
                0.0,
                0.0,
                0.0
            ],
            "name": "Metal",
            "pbrMetallicRoughness": {
                "baseColorFactor": [
                    0.64000004529953,
                    0.64000004529953,
                    0.64000004529953,
                    1.0
                ],
                "metallicFactor": 0.0,
                "roughnessFactor": 1.0
            }
        },
        {
            "alphaMode": "OPAQUE",
            "doubleSided": false,
            "emissiveFactor": [
                0.0,
                0.0,
                0.0
            ],
            "name": "Surface",
            "pbrMetallicRoughness": {
                "baseColorFactor": [
                    0.24865217506885529,
                    0.24865217506885529,
                    0.24865217506885529,
                    1.0
                ],
                "metallicFactor": 0.0,
                "roughnessFactor": 1.0
            }
        }
    ],
    "meshes": [
        {
            "name": "object_1",
            "primitives": [
                {
                    "attributes": {
                        "NORMAL": 0,
                        "POSITION": 3,
                        "TEXCOORD_0": 4
                    },
                    "indices": 5,
                    "material": 0,
                    "mode": 4
                },
                {
                    "attributes": {
                        "NORMAL": 0,
                        "POSITION": 3,
                        "TEXCOORD_0": 4
                    },
                    "indices": 2,
                    "material": 1,
                    "mode": 4
                },
                {
                    "attributes": {
                        "NORMAL": 0,
                        "POSITION": 3,
                        "TEXCOORD_0": 4
                    },
                    "indices": 1,
                    "material": 2,
                    "mode": 4
                }
            ]
        }
    ],
    "nodes": [
        {
            "mesh": 0,
            "name": "cube_covered_side",
            "rotation": [
                0.7071068286895752,
                0.0,
                0.0,
                0.7071067094802856
            ],
            "scale": [
                1.0,
                1.0,
                1.0
            ],
            "translation": [
                0.0,
                0.0,
                0.0
            ]
        }
    ],
    "scene": 0,
    "scenes": [
        {
            "extras": {
                "background_color": [
                    0.05087608844041824,
                    0.05087608844041824,
                    0.05087608844041824
                ],
                "frames_per_second": 24
            },
            "name": "Scene",
            "nodes": [
                0
            ]
        }
    ]
}
