{
    "accessors": [
        {
            "bufferView": 1,
            "byteOffset": 0,
            "componentType": 5126,
            "count": 720,
            "max": [
                1.0,
                1.0,
                1.0
            ],
            "min": [
                -1.0,
                -1.0,
                -1.0
            ],
            "name": "accessor_buffer_object_1.005_NORMAL_0",
            "type": "VEC3"
        },
        {
            "bufferView": 0,
            "byteOffset": 0,
            "componentType": 5126,
            "count": 720,
            "max": [
                10.0,
                10.0,
                0.0
            ],
            "min": [
                -10.0,
                -10.0,
                -20.0
            ],
            "name": "accessor_buffer_object_1.005_POSITION_0",
            "type": "VEC3"
        },
        {
            "bufferView": 2,
            "byteOffset": 0,
            "componentType": 5126,
            "count": 720,
            "max": [
                1.0,
                0.989918370731175
            ],
            "min": [
                0.010081629268825054,
                0.004471302032470703
            ],
            "name": "accessor_buffer_object_1.005_TEXCOORD_0_0",
            "type": "VEC2"
        },
        {
            "bufferView": 3,
            "byteOffset": 0,
            "componentType": 5123,
            "count": 1368,
            "max": [
                719
            ],
            "min": [
                0
            ],
            "name": "accessor_buffer_object_1.005_0",
            "type": "SCALAR"
        }
    ],
    "asset": {
        "copyright": "",
        "generator": "blendergltf v1.2.0",
        "version": "2.0"
    },
    "bufferViews": [
        {
            "buffer": 0,
            "byteLength": 8640,
            "byteOffset": 0,
            "byteStride": 12,
            "name": "bufferView_buffer_object_1.005_POSITION_0",
            "target": 34962
        },
        {
            "buffer": 0,
            "byteLength": 8640,
            "byteOffset": 8640,
            "byteStride": 12,
            "name": "bufferView_buffer_object_1.005_NORMAL_0",
            "target": 34962
        },
        {
            "buffer": 0,
            "byteLength": 5760,
            "byteOffset": 17280,
            "byteStride": 8,
            "name": "bufferView_buffer_object_1.005_TEXCOORD_0_0",
            "target": 34962
        },
        {
            "buffer": 0,
            "byteLength": 2740,
            "byteOffset": 23040,
            "name": "bufferView_buffer_object_1.005_0",
            "target": 34963
        }
    ],
    "buffers": [
        {
            "byteLength": 25780,
            "name": "buffer_cube_frame",
            "uri": "buffer_cube_frame.bin"
        }
    ],
    "materials": [
        {
            "alphaMode": "OPAQUE",
            "doubleSided": false,
            "emissiveFactor": [
                0.0,
                0.0,
                0.0
            ],
            "name": "Metal",
            "pbrMetallicRoughness": {
                "baseColorFactor": [
                    0.64000004529953,
                    0.64000004529953,
                    0.64000004529953,
                    1.0
                ],
                "metallicFactor": 0.0,
                "roughnessFactor": 1.0
            }
        }
    ],
    "meshes": [
        {
            "name": "object_1.005",
            "primitives": [
                {
                    "attributes": {
                        "NORMAL": 0,
                        "POSITION": 1,
                        "TEXCOORD_0": 2
                    },
                    "indices": 3,
                    "material": 0,
                    "mode": 4
                }
            ]
        }
    ],
    "nodes": [
        {
            "mesh": 0,
            "name": "cube_frame",
            "rotation": [
                0.7071068286895752,
                0.0,
                0.0,
                0.7071067094802856
            ],
            "scale": [
                1.0,
                1.0,
                1.0
            ],
            "translation": [
                0.0,
                0.0,
                0.0
            ]
        }
    ],
    "scene": 0,
    "scenes": [
        {
            "extras": {
                "background_color": [
                    0.05087608844041824,
                    0.05087608844041824,
                    0.05087608844041824
                ],
                "frames_per_second": 24
            },
            "name": "Scene",
            "nodes": [
                0
            ]
        }
    ]
}
