{
    "accessors": [
        {
            "bufferView": 4,
            "byteOffset": 0,
            "componentType": 5123,
            "count": 9,
            "max": [
                24
            ],
            "min": [
                0
            ],
            "name": "accessor_buffer_object_1.008_1",
            "type": "SCALAR"
        },
        {
            "bufferView": 2,
            "byteOffset": 0,
            "componentType": 5126,
            "count": 30,
            "max": [
                1.0,
                1.0
            ],
            "min": [
                0.0,
                0.0
            ],
            "name": "accessor_buffer_object_1.008_TEXCOORD_0_0",
            "type": "VEC2"
        },
        {
            "bufferView": 1,
            "byteOffset": 0,
            "componentType": 5126,
            "count": 30,
            "max": [
                1.0,
                1.0,
                1.0
            ],
            "min": [
                -1.0,
                -1.0,
                -1.0
            ],
            "name": "accessor_buffer_object_1.008_NORMAL_0",
            "type": "VEC3"
        },
        {
            "bufferView": 0,
            "byteOffset": 0,
            "componentType": 5126,
            "count": 30,
            "max": [
                10.0,
                10.0,
                -19.0
            ],
            "min": [
                -10.0,
                -10.0,
                -20.0
            ],
            "name": "accessor_buffer_object_1.008_POSITION_0",
            "type": "VEC3"
        },
        {
            "bufferView": 3,
            "byteOffset": 0,
            "componentType": 5123,
            "count": 39,
            "max": [
                29
            ],
            "min": [
                1
            ],
            "name": "accessor_buffer_object_1.008_0",
            "type": "SCALAR"
        }
    ],
    "asset": {
        "copyright": "",
        "generator": "blendergltf v1.2.0",
        "version": "2.0"
    },
    "bufferViews": [
        {
            "buffer": 0,
            "byteLength": 360,
            "byteOffset": 0,
            "byteStride": 12,
            "name": "bufferView_buffer_object_1.008_POSITION_0",
            "target": 34962
        },
        {
            "buffer": 0,
            "byteLength": 360,
            "byteOffset": 360,
            "byteStride": 12,
            "name": "bufferView_buffer_object_1.008_NORMAL_0",
            "target": 34962
        },
        {
            "buffer": 0,
            "byteLength": 240,
            "byteOffset": 720,
            "byteStride": 8,
            "name": "bufferView_buffer_object_1.008_TEXCOORD_0_0",
            "target": 34962
        },
        {
            "buffer": 0,
            "byteLength": 80,
            "byteOffset": 960,
            "name": "bufferView_buffer_object_1.008_0",
            "target": 34963
        },
        {
            "buffer": 0,
            "byteLength": 20,
            "byteOffset": 1040,
            "name": "bufferView_buffer_object_1.008_1",
            "target": 34963
        }
    ],
    "buffers": [
        {
            "byteLength": 1060,
            "name": "buffer_empty_covered_hole_angle",
            "uri": "buffer_empty_covered_hole_angle.bin"
        }
    ],
    "materials": [
        {
            "alphaMode": "OPAQUE",
            "doubleSided": false,
            "emissiveFactor": [
                0.0,
                0.0,
                0.0
            ],
            "name": "Metal",
            "pbrMetallicRoughness": {
                "baseColorFactor": [
                    0.64000004529953,
                    0.64000004529953,
                    0.64000004529953,
                    1.0
                ],
                "metallicFactor": 0.0,
                "roughnessFactor": 1.0
            }
        },
        {
            "alphaMode": "OPAQUE",
            "doubleSided": false,
            "emissiveFactor": [
                0.0,
                0.0,
                0.0
            ],
            "name": "Surface",
            "pbrMetallicRoughness": {
                "baseColorFactor": [
                    0.24865217506885529,
                    0.24865217506885529,
                    0.24865217506885529,
                    1.0
                ],
                "metallicFactor": 0.0,
                "roughnessFactor": 1.0
            }
        }
    ],
    "meshes": [
        {
            "name": "object_1.008",
            "primitives": [
                {
                    "attributes": {
                        "NORMAL": 2,
                        "POSITION": 3,
                        "TEXCOORD_0": 1
                    },
                    "indices": 4,
                    "material": 0,
                    "mode": 4
                },
                {
                    "attributes": {
                        "NORMAL": 2,
                        "POSITION": 3,
                        "TEXCOORD_0": 1
                    },
                    "indices": 0,
                    "material": 1,
                    "mode": 4
                }
            ]
        }
    ],
    "nodes": [
        {
            "mesh": 0,
            "name": "empty_covered_hole_angle",
            "rotation": [
                0.7071068286895752,
                0.0,
                0.0,
                0.7071067094802856
            ],
            "scale": [
                1.0,
                1.0,
                1.0
            ],
            "translation": [
                0.0,
                0.0,
                0.0
            ]
        }
    ],
    "scene": 0,
    "scenes": [
        {
            "extras": {
                "background_color": [
                    0.05087608844041824,
                    0.05087608844041824,
                    0.05087608844041824
                ],
                "frames_per_second": 24
            },
            "name": "Scene",
            "nodes": [
                0
            ]
        }
    ]
}
