{
    "accessors": [
        {
            "bufferView": 3,
            "byteOffset": 0,
            "componentType": 5123,
            "count": 852,
            "max": [
                413
            ],
            "min": [
                0
            ],
            "name": "accessor_buffer_object_1.004_0",
            "type": "SCALAR"
        },
        {
            "bufferView": 2,
            "byteOffset": 0,
            "componentType": 5126,
            "count": 414,
            "max": [
                0.99853515625,
                1.0
            ],
            "min": [
                0.0,
                0.0
            ],
            "name": "accessor_buffer_object_1.004_TEXCOORD_0_0",
            "type": "VEC2"
        },
        {
            "bufferView": 0,
            "byteOffset": 0,
            "componentType": 5126,
            "count": 414,
            "max": [
                10.0,
                10.0,
                0.0
            ],
            "min": [
                -10.0,
                -10.0,
                -20.0
            ],
            "name": "accessor_buffer_object_1.004_POSITION_0",
            "type": "VEC3"
        },
        {
            "bufferView": 1,
            "byteOffset": 0,
            "componentType": 5126,
            "count": 414,
            "max": [
                1.0,
                1.0,
                1.0
            ],
            "min": [
                -1.0,
                -1.0,
                -1.0
            ],
            "name": "accessor_buffer_object_1.004_NORMAL_0",
            "type": "VEC3"
        }
    ],
    "asset": {
        "copyright": "",
        "generator": "blendergltf v1.2.0",
        "version": "2.0"
    },
    "bufferViews": [
        {
            "buffer": 0,
            "byteLength": 4968,
            "byteOffset": 0,
            "byteStride": 12,
            "name": "bufferView_buffer_object_1.004_POSITION_0",
            "target": 34962
        },
        {
            "buffer": 0,
            "byteLength": 4968,
            "byteOffset": 4968,
            "byteStride": 12,
            "name": "bufferView_buffer_object_1.004_NORMAL_0",
            "target": 34962
        },
        {
            "buffer": 0,
            "byteLength": 3312,
            "byteOffset": 9936,
            "byteStride": 8,
            "name": "bufferView_buffer_object_1.004_TEXCOORD_0_0",
            "target": 34962
        },
        {
            "buffer": 0,
            "byteLength": 1708,
            "byteOffset": 13248,
            "name": "bufferView_buffer_object_1.004_0",
            "target": 34963
        }
    ],
    "buffers": [
        {
            "byteLength": 14956,
            "name": "buffer_corner_frame",
            "uri": "buffer_corner_frame.bin"
        }
    ],
    "materials": [
        {
            "alphaMode": "OPAQUE",
            "doubleSided": false,
            "emissiveFactor": [
                0.0,
                0.0,
                0.0
            ],
            "name": "Metal",
            "pbrMetallicRoughness": {
                "baseColorFactor": [
                    0.64000004529953,
                    0.64000004529953,
                    0.64000004529953,
                    1.0
                ],
                "metallicFactor": 0.0,
                "roughnessFactor": 1.0
            }
        }
    ],
    "meshes": [
        {
            "name": "object_1.004",
            "primitives": [
                {
                    "attributes": {
                        "NORMAL": 3,
                        "POSITION": 2,
                        "TEXCOORD_0": 1
                    },
                    "indices": 0,
                    "material": 0,
                    "mode": 4
                }
            ]
        }
    ],
    "nodes": [
        {
            "mesh": 0,
            "name": "corner_frame",
            "rotation": [
                0.7071068286895752,
                0.0,
                0.0,
                0.7071067094802856
            ],
            "scale": [
                1.0,
                1.0,
                1.0
            ],
            "translation": [
                0.0,
                0.0,
                0.0
            ]
        }
    ],
    "scene": 0,
    "scenes": [
        {
            "extras": {
                "background_color": [
                    0.05087608844041824,
                    0.05087608844041824,
                    0.05087608844041824
                ],
                "frames_per_second": 24
            },
            "name": "Scene",
            "nodes": [
                0
            ]
        }
    ]
}
