{
    "accessors": [
        {
            "bufferView": 0,
            "byteOffset": 0,
            "componentType": 5126,
            "count": 666,
            "max": [
                10.0,
                10.0,
                0.0
            ],
            "min": [
                -10.0,
                -10.0,
                -20.0
            ],
            "name": "accessor_buffer_object_1.001_POSITION_0",
            "type": "VEC3"
        },
        {
            "bufferView": 1,
            "byteOffset": 0,
            "componentType": 5126,
            "count": 666,
            "max": [
                1.0,
                1.0,
                1.0
            ],
            "min": [
                -1.0,
                -1.0,
                -1.0
            ],
            "name": "accessor_buffer_object_1.001_NORMAL_0",
            "type": "VEC3"
        },
        {
            "bufferView": 2,
            "byteOffset": 0,
            "componentType": 5126,
            "count": 666,
            "max": [
                1.0,
                1.0
            ],
            "min": [
                0.009782890789210796,
                0.0038840770721435547
            ],
            "name": "accessor_buffer_object_1.001_TEXCOORD_0_0",
            "type": "VEC2"
        },
        {
            "bufferView": 3,
            "byteOffset": 0,
            "componentType": 5123,
            "count": 12,
            "max": [
                633
            ],
            "min": [
                10
            ],
            "name": "accessor_buffer_object_1.001_0",
            "type": "SCALAR"
        },
        {
            "bufferView": 4,
            "byteOffset": 0,
            "componentType": 5123,
            "count": 1221,
            "max": [
                665
            ],
            "min": [
                0
            ],
            "name": "accessor_buffer_object_1.001_1",
            "type": "SCALAR"
        },
        {
            "bufferView": 5,
            "byteOffset": 0,
            "componentType": 5123,
            "count": 27,
            "max": [
                653
            ],
            "min": [
                8
            ],
            "name": "accessor_buffer_object_1.001_2",
            "type": "SCALAR"
        }
    ],
    "asset": {
        "copyright": "",
        "generator": "blendergltf v1.2.0",
        "version": "2.0"
    },
    "bufferViews": [
        {
            "buffer": 0,
            "byteLength": 7992,
            "byteOffset": 0,
            "byteStride": 12,
            "name": "bufferView_buffer_object_1.001_POSITION_0",
            "target": 34962
        },
        {
            "buffer": 0,
            "byteLength": 7992,
            "byteOffset": 7992,
            "byteStride": 12,
            "name": "bufferView_buffer_object_1.001_NORMAL_0",
            "target": 34962
        },
        {
            "buffer": 0,
            "byteLength": 5328,
            "byteOffset": 15984,
            "byteStride": 8,
            "name": "bufferView_buffer_object_1.001_TEXCOORD_0_0",
            "target": 34962
        },
        {
            "buffer": 0,
            "byteLength": 28,
            "byteOffset": 21312,
            "name": "bufferView_buffer_object_1.001_0",
            "target": 34963
        },
        {
            "buffer": 0,
            "byteLength": 2444,
            "byteOffset": 21340,
            "name": "bufferView_buffer_object_1.001_1",
            "target": 34963
        },
        {
            "buffer": 0,
            "byteLength": 56,
            "byteOffset": 23784,
            "name": "bufferView_buffer_object_1.001_2",
            "target": 34963
        }
    ],
    "buffers": [
        {
            "byteLength": 23840,
            "name": "buffer_cube_covered_angle",
            "uri": "buffer_cube_covered_angle.bin"
        }
    ],
    "materials": [
        {
            "alphaMode": "OPAQUE",
            "doubleSided": false,
            "emissiveFactor": [
                10.0,
                10.0,
                10.0
            ],
            "name": "Light",
            "pbrMetallicRoughness": {
                "baseColorFactor": [
                    0.64000004529953,
                    0.0,
                    0.0,
                    1.0
                ],
                "metallicFactor": 0.0,
                "roughnessFactor": 1.0
            }
        },
        {
            "alphaMode": "OPAQUE",
            "doubleSided": false,
            "emissiveFactor": [
                0.0,
                0.0,
                0.0
            ],
            "name": "Metal",
            "pbrMetallicRoughness": {
                "baseColorFactor": [
                    0.64000004529953,
                    0.64000004529953,
                    0.64000004529953,
                    1.0
                ],
                "metallicFactor": 0.0,
                "roughnessFactor": 1.0
            }
        },
        {
            "alphaMode": "OPAQUE",
            "doubleSided": false,
            "emissiveFactor": [
                0.0,
                0.0,
                0.0
            ],
            "name": "Surface",
            "pbrMetallicRoughness": {
                "baseColorFactor": [
                    0.24865217506885529,
                    0.24865217506885529,
                    0.24865217506885529,
                    1.0
                ],
                "metallicFactor": 0.0,
                "roughnessFactor": 1.0
            }
        }
    ],
    "meshes": [
        {
            "name": "object_1.001",
            "primitives": [
                {
                    "attributes": {
                        "NORMAL": 1,
                        "POSITION": 0,
                        "TEXCOORD_0": 2
                    },
                    "indices": 3,
                    "material": 0,
                    "mode": 4
                },
                {
                    "attributes": {
                        "NORMAL": 1,
                        "POSITION": 0,
                        "TEXCOORD_0": 2
                    },
                    "indices": 4,
                    "material": 1,
                    "mode": 4
                },
                {
                    "attributes": {
                        "NORMAL": 1,
                        "POSITION": 0,
                        "TEXCOORD_0": 2
                    },
                    "indices": 5,
                    "material": 2,
                    "mode": 4
                }
            ]
        }
    ],
    "nodes": [
        {
            "mesh": 0,
            "name": "cube_covered_angle",
            "rotation": [
                0.7071068286895752,
                0.0,
                0.0,
                0.7071067094802856
            ],
            "scale": [
                1.0,
                1.0,
                1.0
            ],
            "translation": [
                0.0,
                0.0,
                0.0
            ]
        }
    ],
    "scene": 0,
    "scenes": [
        {
            "extras": {
                "background_color": [
                    0.05087608844041824,
                    0.05087608844041824,
                    0.05087608844041824
                ],
                "frames_per_second": 24
            },
            "name": "Scene",
            "nodes": [
                0
            ]
        }
    ]
}
