# MagicaVoxel @ Ephtracy

# material
mtllib platform.mtl
usemtl platform

# normals
vn -1 0 0
vn 1 0 0
vn 0 0 1
vn 0 0 -1
vn 0 -1 0
vn 0 1 0

# texcoords
vt 0.982422 0.5
vt 0.986328 0.5

# verts
v -10 19 -0
v -10 19 -2
v -10 19 -10
v -10 20 -0
v -10 20 -2
v -10 20 -10
v -9 19 1
v -9 19 -0
v -9 20 1
v -9 20 -0
v -8 19 2
v -8 19 1
v -8 20 2
v -8 20 1
v -7 19 3
v -7 19 2
v -7 20 3
v -7 20 2
v -6 19 4
v -6 19 3
v -6 20 4
v -6 20 3
v -5 19 5
v -5 19 4
v -5 20 5
v -5 20 4
v -4 19 6
v -4 19 5
v -4 20 6
v -4 20 5
v -3 19 7
v -3 19 6
v -3 20 7
v -3 20 6
v -2 19 8
v -2 19 7
v -2 20 8
v -2 20 7
v -1 19 9
v -1 19 8
v -1 20 9
v -1 20 8
v 0 19 10
v 0 19 9
v 0 20 10
v 0 20 9
v 10 19 10
v 10 19 -10
v 10 20 10
v 10 20 -10
v 0 19 10
v 0 20 10
v 2 19 10
v 2 20 10
v 10 19 10
v 10 20 10
v -1 19 9
v -1 20 9
v 0 19 9
v 0 20 9
v -2 19 8
v -2 20 8
v -1 19 8
v -1 20 8
v -3 19 7
v -3 20 7
v -2 19 7
v -2 20 7
v -4 19 6
v -4 20 6
v -3 19 6
v -3 20 6
v -5 19 5
v -5 20 5
v -4 19 5
v -4 20 5
v -6 19 4
v -6 20 4
v -5 19 4
v -5 20 4
v -7 19 3
v -7 20 3
v -6 19 3
v -6 20 3
v -8 19 2
v -8 20 2
v -7 19 2
v -7 20 2
v -9 19 1
v -9 20 1
v -8 19 1
v -8 20 1
v -10 19 -0
v -10 20 -0
v -9 19 -0
v -9 20 -0
v -10 19 -10
v -10 20 -10
v 10 19 -10
v 10 20 -10
v 0 19 10
v 2 19 10
v 10 19 10
v -1 19 9
v 0 19 9
v 1 19 9
v 2 19 9
v -2 19 8
v -1 19 8
v 0 19 8
v 1 19 8
v -3 19 7
v -2 19 7
v -1 19 7
v 0 19 7
v -4 19 6
v -3 19 6
v -2 19 6
v -1 19 6
v -5 19 5
v -4 19 5
v -3 19 5
v -2 19 5
v -6 19 4
v -5 19 4
v -4 19 4
v -3 19 4
v -7 19 3
v -6 19 3
v -5 19 3
v -4 19 3
v -8 19 2
v -7 19 2
v -6 19 2
v -5 19 2
v -9 19 1
v -8 19 1
v -7 19 1
v -6 19 1
v -10 19 -0
v -9 19 -0
v -8 19 -0
v -7 19 -0
v -9 19 -1
v -8 19 -1
v -10 19 -2
v -9 19 -2
v -10 19 -10
v 10 19 -10
v 0 20 10
v 2 20 10
v 10 20 10
v -1 20 9
v 0 20 9
v 1 20 9
v 2 20 9
v -2 20 8
v -1 20 8
v 0 20 8
v 1 20 8
v -3 20 7
v -2 20 7
v -1 20 7
v 0 20 7
v -4 20 6
v -3 20 6
v -2 20 6
v -1 20 6
v -5 20 5
v -4 20 5
v -3 20 5
v -2 20 5
v -6 20 4
v -5 20 4
v -4 20 4
v -3 20 4
v -7 20 3
v -6 20 3
v -5 20 3
v -4 20 3
v -8 20 2
v -7 20 2
v -6 20 2
v -5 20 2
v -9 20 1
v -8 20 1
v -7 20 1
v -6 20 1
v -10 20 -0
v -9 20 -0
v -8 20 -0
v -7 20 -0
v -9 20 -1
v -8 20 -1
v -10 20 -2
v -9 20 -2
v -10 20 -10
v 10 20 -10

# faces
f 4/2/1 2/2/1 1/2/1
f 5/1/1 3/1/1 2/1/1
f 5/2/1 2/2/1 4/2/1
f 6/1/1 3/1/1 5/1/1
f 9/2/1 8/2/1 7/2/1
f 10/2/1 8/2/1 9/2/1
f 13/2/1 12/2/1 11/2/1
f 14/2/1 12/2/1 13/2/1
f 17/2/1 16/2/1 15/2/1
f 18/2/1 16/2/1 17/2/1
f 21/2/1 20/2/1 19/2/1
f 22/2/1 20/2/1 21/2/1
f 25/2/1 24/2/1 23/2/1
f 26/2/1 24/2/1 25/2/1
f 29/2/1 28/2/1 27/2/1
f 30/2/1 28/2/1 29/2/1
f 33/2/1 32/2/1 31/2/1
f 34/2/1 32/2/1 33/2/1
f 37/2/1 36/2/1 35/2/1
f 38/2/1 36/2/1 37/2/1
f 41/2/1 40/2/1 39/2/1
f 42/2/1 40/2/1 41/2/1
f 45/2/1 44/2/1 43/2/1
f 46/2/1 44/2/1 45/2/1
f 47/1/2 48/1/2 49/1/2
f 49/1/2 48/1/2 50/1/2
f 53/2/3 52/2/3 51/2/3
f 54/2/3 52/2/3 53/2/3
f 55/1/3 54/1/3 53/1/3
f 56/1/3 54/1/3 55/1/3
f 59/2/3 58/2/3 57/2/3
f 60/2/3 58/2/3 59/2/3
f 63/2/3 62/2/3 61/2/3
f 64/2/3 62/2/3 63/2/3
f 67/2/3 66/2/3 65/2/3
f 68/2/3 66/2/3 67/2/3
f 71/2/3 70/2/3 69/2/3
f 72/2/3 70/2/3 71/2/3
f 75/2/3 74/2/3 73/2/3
f 76/2/3 74/2/3 75/2/3
f 79/2/3 78/2/3 77/2/3
f 80/2/3 78/2/3 79/2/3
f 83/2/3 82/2/3 81/2/3
f 84/2/3 82/2/3 83/2/3
f 87/2/3 86/2/3 85/2/3
f 88/2/3 86/2/3 87/2/3
f 91/2/3 90/2/3 89/2/3
f 92/2/3 90/2/3 91/2/3
f 95/2/3 94/2/3 93/2/3
f 96/2/3 94/2/3 95/2/3
f 97/1/4 98/1/4 99/1/4
f 99/1/4 98/1/4 100/1/4
f 105/2/5 102/2/5 101/2/5
f 106/2/5 102/2/5 105/2/5
f 107/1/5 103/1/5 102/1/5
f 107/2/5 102/2/5 106/2/5
f 109/2/5 106/2/5 105/2/5
f 109/2/5 105/2/5 104/2/5
f 110/2/5 106/2/5 109/2/5
f 111/1/5 107/1/5 106/1/5
f 111/2/5 106/2/5 110/2/5
f 113/2/5 110/2/5 109/2/5
f 113/2/5 109/2/5 108/2/5
f 114/2/5 110/2/5 113/2/5
f 115/1/5 111/1/5 110/1/5
f 115/2/5 110/2/5 114/2/5
f 117/2/5 114/2/5 113/2/5
f 117/2/5 113/2/5 112/2/5
f 118/2/5 114/2/5 117/2/5
f 119/1/5 115/1/5 114/1/5
f 119/2/5 114/2/5 118/2/5
f 121/2/5 118/2/5 117/2/5
f 121/2/5 117/2/5 116/2/5
f 122/2/5 118/2/5 121/2/5
f 123/1/5 119/1/5 118/1/5
f 123/2/5 118/2/5 122/2/5
f 125/2/5 122/2/5 121/2/5
f 125/2/5 121/2/5 120/2/5
f 126/2/5 122/2/5 125/2/5
f 127/1/5 123/1/5 122/1/5
f 127/2/5 122/2/5 126/2/5
f 129/2/5 126/2/5 125/2/5
f 129/2/5 125/2/5 124/2/5
f 130/2/5 126/2/5 129/2/5
f 131/1/5 127/1/5 126/1/5
f 131/2/5 126/2/5 130/2/5
f 133/2/5 130/2/5 129/2/5
f 133/2/5 129/2/5 128/2/5
f 134/2/5 130/2/5 133/2/5
f 135/1/5 131/1/5 130/1/5
f 135/2/5 130/2/5 134/2/5
f 137/2/5 134/2/5 133/2/5
f 137/2/5 133/2/5 132/2/5
f 138/2/5 134/2/5 137/2/5
f 139/1/5 135/1/5 134/1/5
f 139/2/5 134/2/5 138/2/5
f 141/2/5 138/2/5 137/2/5
f 141/2/5 137/2/5 136/2/5
f 142/2/5 138/2/5 141/2/5
f 143/1/5 139/1/5 138/1/5
f 143/2/5 138/2/5 142/2/5
f 144/2/5 142/2/5 141/2/5
f 144/2/5 141/2/5 140/2/5
f 145/1/5 143/1/5 142/1/5
f 145/2/5 142/2/5 144/2/5
f 146/2/5 144/2/5 140/2/5
f 147/1/5 145/1/5 144/1/5
f 147/2/5 144/2/5 146/2/5
f 148/1/5 147/1/5 146/1/5
f 149/1/5 103/1/5 107/1/5
f 149/1/5 147/1/5 148/1/5
f 149/1/5 107/1/5 111/1/5
f 149/1/5 145/1/5 147/1/5
f 149/1/5 111/1/5 115/1/5
f 149/1/5 143/1/5 145/1/5
f 149/1/5 115/1/5 119/1/5
f 149/1/5 139/1/5 143/1/5
f 149/1/5 119/1/5 123/1/5
f 149/1/5 135/1/5 139/1/5
f 149/1/5 123/1/5 127/1/5
f 149/1/5 131/1/5 135/1/5
f 149/1/5 127/1/5 131/1/5
f 150/2/6 151/2/6 154/2/6
f 154/2/6 151/2/6 155/2/6
f 151/1/6 152/1/6 156/1/6
f 155/2/6 151/2/6 156/2/6
f 154/2/6 155/2/6 158/2/6
f 153/2/6 154/2/6 158/2/6
f 158/2/6 155/2/6 159/2/6
f 155/1/6 156/1/6 160/1/6
f 159/2/6 155/2/6 160/2/6
f 158/2/6 159/2/6 162/2/6
f 157/2/6 158/2/6 162/2/6
f 162/2/6 159/2/6 163/2/6
f 159/1/6 160/1/6 164/1/6
f 163/2/6 159/2/6 164/2/6
f 162/2/6 163/2/6 166/2/6
f 161/2/6 162/2/6 166/2/6
f 166/2/6 163/2/6 167/2/6
f 163/1/6 164/1/6 168/1/6
f 167/2/6 163/2/6 168/2/6
f 166/2/6 167/2/6 170/2/6
f 165/2/6 166/2/6 170/2/6
f 170/2/6 167/2/6 171/2/6
f 167/1/6 168/1/6 172/1/6
f 171/2/6 167/2/6 172/2/6
f 170/2/6 171/2/6 174/2/6
f 169/2/6 170/2/6 174/2/6
f 174/2/6 171/2/6 175/2/6
f 171/1/6 172/1/6 176/1/6
f 175/2/6 171/2/6 176/2/6
f 174/2/6 175/2/6 178/2/6
f 173/2/6 174/2/6 178/2/6
f 178/2/6 175/2/6 179/2/6
f 175/1/6 176/1/6 180/1/6
f 179/2/6 175/2/6 180/2/6
f 178/2/6 179/2/6 182/2/6
f 177/2/6 178/2/6 182/2/6
f 182/2/6 179/2/6 183/2/6
f 179/1/6 180/1/6 184/1/6
f 183/2/6 179/2/6 184/2/6
f 182/2/6 183/2/6 186/2/6
f 181/2/6 182/2/6 186/2/6
f 186/2/6 183/2/6 187/2/6
f 183/1/6 184/1/6 188/1/6
f 187/2/6 183/2/6 188/2/6
f 186/2/6 187/2/6 190/2/6
f 185/2/6 186/2/6 190/2/6
f 190/2/6 187/2/6 191/2/6
f 187/1/6 188/1/6 192/1/6
f 191/2/6 187/2/6 192/2/6
f 190/2/6 191/2/6 193/2/6
f 189/2/6 190/2/6 193/2/6
f 191/1/6 192/1/6 194/1/6
f 193/2/6 191/2/6 194/2/6
f 189/2/6 193/2/6 195/2/6
f 193/1/6 194/1/6 196/1/6
f 195/2/6 193/2/6 196/2/6
f 195/1/6 196/1/6 197/1/6
f 156/1/6 152/1/6 198/1/6
f 197/1/6 196/1/6 198/1/6
f 160/1/6 156/1/6 198/1/6
f 196/1/6 194/1/6 198/1/6
f 164/1/6 160/1/6 198/1/6
f 194/1/6 192/1/6 198/1/6
f 168/1/6 164/1/6 198/1/6
f 192/1/6 188/1/6 198/1/6
f 172/1/6 168/1/6 198/1/6
f 188/1/6 184/1/6 198/1/6
f 176/1/6 172/1/6 198/1/6
f 184/1/6 180/1/6 198/1/6
f 180/1/6 176/1/6 198/1/6
